{
  "accessors": [
    {
      "bufferView": 2,
      "componentType": 5126,
      "count": 723,
      "max": [
        -28.384113311767578,
        26.384237289428711,
        9.0072479248046875
      ],
      "min": [
        -62.634624481201172,
        -0.36941146850585938,
        -23.481559753417969
      ],
      "type": "VEC3"
    },
    {
      "bufferView": 2,
      "byteOffset": 8676,
      "componentType": 5126,
      "count": 723,
      "max": [
        1,
        1,
        1
      ],
      "min": [
        -1,
        -1,
        -1
      ],
      "type": "VEC3"
    },
    {
      "bufferView": 3,
      "componentType": 5126,
      "count": 723,
      "max": [
        1,
        0.9999995231628418,
        1,
        1
      ],
      "min": [
        -1,
        -1,
        -1,
        1
      ],
      "type": "VEC4"
    },
    {
      "bufferView": 1,
      "componentType": 5126,
      "count": 723,
      "max": [
        0.96093857288360596,
        0.99732667207717896
      ],
      "min": [
        0,
        0
      ],
      "type": "VEC2"
    },
    {
      "bufferView": 0,
      "componentType": 5125,
      "count": 1776,
      "max": [
        722
      ],
      "min": [
        0
      ],
      "type": "SCALAR"
    },
    {
      "bufferView": 2,
      "byteOffset": 17352,
      "componentType": 5126,
      "count": 8274,
      "max": [
        -37.641826629638672,
        3.866581916809082,
        6.8155632019042969
      ],
      "min": [
        -72.892852783203125,
        -0.15774741768836975,
        -24.015598297119141
      ],
      "type": "VEC3"
    },
    {
      "bufferView": 2,
      "byteOffset": 116640,
      "componentType": 5126,
      "count": 8274,
      "max": [
        1,
        0.99999868869781494,
        0.99997365474700928
      ],
      "min": [
        -1,
        -0.9999726414680481,
        -0.99995571374893188
      ],
      "type": "VEC3"
    },
    {
      "bufferView": 3,
      "byteOffset": 11568,
      "componentType": 5126,
      "count": 8274,
      "max": [
        0.99999457597732544,
        0.99827158451080322,
        1,
        1
      ],
      "min": [
        -0.999919593334198,
        -1,
        -1,
        1
      ],
      "type": "VEC4"
    },
    {
      "bufferView": 1,
      "byteOffset": 5784,
      "componentType": 5126,
      "count": 8274,
      "max": [
        0.84210675954818726,
        0.99525606632232666
      ],
      "min": [
        0,
        0
      ],
      "type": "VEC2"
    },
    {
      "bufferView": 0,
      "byteOffset": 7104,
      "componentType": 5125,
      "count": 43806,
      "max": [
        8273
      ],
      "min": [
        0
      ],
      "type": "SCALAR"
    },
    {
      "bufferView": 2,
      "byteOffset": 215928,
      "componentType": 5126,
      "count": 1323,
      "max": [
        -29.412429809570312,
        3.8674788475036621,
        6.5121040344238281
      ],
      "min": [
        -38.568271636962891,
        -0.038149654865264893,
        -23.432487487792969
      ],
      "type": "VEC3"
    },
    {
      "bufferView": 2,
      "byteOffset": 231804,
      "componentType": 5126,
      "count": 1323,
      "max": [
        0.99993890523910522,
        1,
        1
      ],
      "min": [
        -1,
        -1,
        -1
      ],
      "type": "VEC3"
    },
    {
      "bufferView": 3,
      "byteOffset": 143952,
      "componentType": 5126,
      "count": 1323,
      "max": [
        0.99993759393692017,
        1,
        0.99999469518661499,
        1
      ],
      "min": [
        -0.99993759393692017,
        -0.99840933084487915,
        -0.99994039535522461,
        -1
      ],
      "type": "VEC4"
    },
    {
      "bufferView": 1,
      "byteOffset": 71976,
      "componentType": 5126,
      "count": 1323,
      "max": [
        0.99064493179321289,
        0.97976070642471313
      ],
      "min": [
        0.0044685704633593559,
        0.0088099241256713867
      ],
      "type": "VEC2"
    },
    {
      "bufferView": 0,
      "byteOffset": 182328,
      "componentType": 5125,
      "count": 2124,
      "max": [
        1322
      ],
      "min": [
        0
      ],
      "type": "SCALAR"
    }
  ],
  "asset": {
    "extras": {
      "author": "Olli_one (https://sketchfab.com/Olli_one)",
      "license": "CC-BY-4.0 (http://creativecommons.org/licenses/by/4.0/)",
      "source": "https://sketchfab.com/3d-models/macintosh-a8a98ce5b4af43ca8f680cb1b005fc5d",
      "title": "macintosh"
    },
    "generator": "Sketchfab-9.6.0",
    "version": "2.0"
  },
  "bufferViews": [
    {
      "buffer": 0,
      "byteLength": 190824,
      "byteOffset": 0,
      "name": "floatBufferViews",
      "target": 34963
    },
    {
      "buffer": 0,
      "byteLength": 82560,
      "byteOffset": 190824,
      "byteStride": 8,
      "name": "floatBufferViews",
      "target": 34962
    },
    {
      "buffer": 0,
      "byteLength": 247680,
      "byteOffset": 273384,
      "byteStride": 12,
      "name": "floatBufferViews",
      "target": 34962
    },
    {
      "buffer": 0,
      "byteLength": 165120,
      "byteOffset": 521064,
      "byteStride": 16,
      "name": "floatBufferViews",
      "target": 34962
    }
  ],
  "buffers": [
    {
      "byteLength": 686184,
      "uri": "scene.bin"
    }
  ],
  "images": [
    {
      "uri": "textures/lambert1_baseColor.png"
    },
    {
      "uri": "textures/lambert1_metallicRoughness.png"
    },
    {
      "uri": "textures/lambert1_emissive.png"
    },
    {
      "uri": "textures/lambert1_normal.png"
    }
  ],
  "materials": [
    {
      "doubleSided": true,
      "emissiveFactor": [
        1,
        1,
        1
      ],
      "emissiveTexture": {
        "index": 2,
        "texCoord": 0
      },
      "name": "lambert1",
      "normalTexture": {
        "index": 3,
        "scale": 1,
        "texCoord": 0
      },
      "occlusionTexture": {
        "index": 1,
        "strength": 1,
        "texCoord": 0
      },
      "pbrMetallicRoughness": {
        "baseColorFactor": [
          1,
          1,
          1,
          1
        ],
        "baseColorTexture": {
          "index": 0,
          "texCoord": 0
        },
        "metallicFactor": 1,
        "metallicRoughnessTexture": {
          "index": 1,
          "texCoord": 0
        },
        "roughnessFactor": 1
      }
    }
  ],
  "meshes": [
    {
      "name": "one_lp_lambert1_0",
      "primitives": [
        {
          "attributes": {
            "NORMAL": 1,
            "POSITION": 0,
            "TANGENT": 2,
            "TEXCOORD_0": 3
          },
          "indices": 4,
          "material": 0,
          "mode": 4
        }
      ]
    },
    {
      "name": "tre_lp_lambert1_0",
      "primitives": [
        {
          "attributes": {
            "NORMAL": 6,
            "POSITION": 5,
            "TANGENT": 7,
            "TEXCOORD_0": 8
          },
          "indices": 9,
          "material": 0,
          "mode": 4
        }
      ]
    },
    {
      "name": "too_lp_lambert1_0",
      "primitives": [
        {
          "attributes": {
            "NORMAL": 11,
            "POSITION": 10,
            "TANGENT": 12,
            "TEXCOORD_0": 13
          },
          "indices": 14,
          "material": 0,
          "mode": 4
        }
      ]
    }
  ],
  "nodes": [
    {
      "children": [
        1
      ],
      "name": "RootNode (gltf orientation matrix)",
      "rotation": [
        -0.70710678118654746,
        -0,
        -0,
        0.70710678118654757
      ]
    },
    {
      "children": [
        2
      ],
      "name": "RootNode (model correction matrix)"
    },
    {
      "children": [
        3
      ],
      "matrix": [
        1,
        0,
        0,
        0,
        0,
        0,
        1,
        0,
        0,
        -1,
        0,
        0,
        0,
        0,
        0,
        1
      ],
      "name": "lp.fbx"
    },
    {
      "children": [
        4,
        6,
        8
      ],
      "name": "RootNode"
    },
    {
      "children": [
        5
      ],
      "name": "one_lp"
    },
    {
      "mesh": 0,
      "name": "one_lp_lambert1_0"
    },
    {
      "children": [
        7
      ],
      "name": "tre_lp"
    },
    {
      "mesh": 1,
      "name": "tre_lp_lambert1_0"
    },
    {
      "children": [
        9
      ],
      "name": "too_lp"
    },
    {
      "mesh": 2,
      "name": "too_lp_lambert1_0"
    }
  ],
  "samplers": [
    {
      "magFilter": 9729,
      "minFilter": 9987,
      "wrapS": 10497,
      "wrapT": 10497
    }
  ],
  "scene": 0,
  "scenes": [
    {
      "name": "OSG_Scene",
      "nodes": [
        0
      ]
    }
  ],
  "textures": [
    {
      "sampler": 0,
      "source": 0
    },
    {
      "sampler": 0,
      "source": 1
    },
    {
      "sampler": 0,
      "source": 2
    },
    {
      "sampler": 0,
      "source": 3
    }
  ]
}

